<?xml version="1.0" encoding="UTF-8"?><svg id="Head" xmlns="http://www.w3.org/2000/svg" viewBox="0 0 213.23 213.23"><defs><style>.cls-1{stroke:#000;stroke-miterlimit:10;}</style></defs><path class="cls-1" d="m106.61,192.6l-7.22-9.95-7.3-14.26-3.65-9.62-5.64-2.65h-8.95l-13.26-1.33-6.3-2.98-4.31-7.3,1.99-6.96-.31-3.87-3.22-3.1v-4.83l.99-1.73-1.98-2.97v-2.85l.87-4.21-.25-2.97-2.23-2.97h-3.96l-4.09-3.22-.99-3.16,2.6-5.38,7.23-7.5,3.94-6.25,1.62-6.02-.93-7.18.66-10.61,5.03-11.54,5.62-7.69,6.21-7.1,7.69-5.62,7.4-4.14,8.28-3.25,6.81-2.37,7.65-1.48h11.88l10.06,1.78,7.69,1.18,7.4,3.25,5.62,2.96,6.51,4.73,5.92,5.33,4.73,5.33,6.21,10.95,2.07,7.99,1.48,9.17v9.76l-1.18,12.43-5.33,10.79-6.21,11.4-4.44,7.69-2.66,7.1v5.62l1.48,7.4,1.78,6.51s2.37,3.25.3,5.92-10.36,13.02-10.36,13.02l-9.76,7.4-13.31,11.24-10.06,4.73-9.81,3.4Z"/></svg>